name analog
datacolumns 19
datarows 42
range 0.0 0.0205
endheader
time	ground_force_vx	ground_force_vy	ground_force_vz	ground_force_px	ground_force_py	ground_force_pz	l_ground_force_vx	l_ground_force_vy	l_ground_force_vz	l_ground_force_px	l_ground_force_py	l_ground_force_pz	ground_torque_x	ground_torque_y	ground_torque_z	l_ground_torque_x	l_ground_torque_y	l_ground_torque_z
0.0	-0.0	-0.0	-0.0	-6.681122779846191	11.131643295288086	-197.5894317626953	6.082115173339844	-7.409109115600586	-574.4293212890625	-0.0	-0.0	-0.0	-0.0	-0.0	-0.0	204444.078125	-40936.40625	1129.6771240234375
0.0005	-0.0	-0.0	-0.0	-6.7608137130737305	11.13842487335205	-198.76434326171875	6.278697967529297	-7.409181118011475	-571.36865234375	-0.0	-0.0	-0.0	-0.0	-0.0	-0.0	204060.8125	-40557.83984375	1182.534912109375
0.001	-0.0	-0.0	-0.0	-7.257998466491699	11.380084991455078	-198.41156005859372	6.3083014488220215	-7.232585906982422	-571.98779296875	-0.0	-0.0	-0.0	-0.0	-0.0	-0.0	203684.75	-40019.55859375	1133.1717529296875
0.0015	-0.0	-0.0	-0.0	-7.127357482910156	10.921282768249512	-198.5622100830078	6.55482292175293	-7.320967674255371	-571.2918701171875	-0.0	-0.0	-0.0	-0.0	-0.0	-0.0	203374.09375	-40071.015625	1212.490478515625
0.002	-0.0	-0.0	-0.0	-6.737840175628662	11.577549934387209	-199.54666137695312	6.45648193359375	-7.094715595245361	-569.5426635742188	-0.0	-0.0	-0.0	-0.0	-0.0	-0.0	202670.609375	-39591.7109375	1248.679443359375
0.0025	-0.0	-0.0	-0.0	-7.211733341217041	11.586952209472656	-201.2013702392578	6.475887298583984	-7.104182243347168	-568.5328369140625	-0.0	-0.0	-0.0	-0.0	-0.0	-0.0	202171.046875	-39222.80078125	1146.1761474609375
0.003	-0.0	-0.0	-0.0	-7.26881217956543	11.7373685836792	-202.18820190429688	6.041916370391846	-7.075275897979736	-567.371337890625	-0.0	-0.0	-0.0	-0.0	-0.0	-0.0	201920.484375	-38748.73046875	1162.6019287109375
0.0035	-0.0	-0.0	-0.0	-7.315261840820312	11.553138732910156	-201.8484039306641	6.200233936309815	-7.144577026367188	-565.4263916015625	-0.0	-0.0	-0.0	-0.0	-0.0	-0.0	201578.859375	-38638.46875	1030.2750244140625
0.004	-0.0	-0.0	-0.0	-7.733776092529297	11.43620491027832	-203.8836212158203	5.924676418304443	-7.106898784637451	-566.8731079101562	-0.0	-0.0	-0.0	-0.0	-0.0	-0.0	200995.390625	-38582.87109375	1073.4815673828125
0.0045000000000000005	-0.0	-0.0	-0.0	-8.072623252868652	11.49057674407959	-203.56851196289065	5.48126745223999	-7.093812942504883	-566.5620727539062	-0.0	-0.0	-0.0	-0.0	-0.0	-0.0	200952.1875	-37824.1640625	1030.9073486328125
0.005	-0.0	-0.0	-0.0	-8.127214431762695	11.996405601501465	-203.67724609375	5.11262845993042	-7.195822238922119	-564.430908203125	-0.0	-0.0	-0.0	-0.0	-0.0	-0.0	200963.3125	-37884.890625	908.8843383789062
0.0055	-0.0	-0.0	-0.0	-8.091164588928223	11.801169395446776	-203.74920654296875	5.163809299468994	-6.949659824371338	-563.4009399414062	-0.0	-0.0	-0.0	-0.0	-0.0	-0.0	200539.0625	-37484.12890625	796.6220703125
0.006	-0.0	-0.0	-0.0	-7.930810928344727	12.139567375183104	-205.3740692138672	5.02885627746582	-6.493378162384033	-562.51953125	-0.0	-0.0	-0.0	-0.0	-0.0	-0.0	200228.671875	-37501.29296875	601.3738403320312
0.006500000000000001	-0.0	-0.0	-0.0	-8.127032279968262	12.023736000061035	-203.2190093994141	4.799553394317627	-7.108401775360107	-563.6751708984375	-0.0	-0.0	-0.0	-0.0	-0.0	-0.0	199967.6875	-37182.71875	441.4384460449219
0.007	-0.0	-0.0	-0.0	-7.983756065368652	11.997419357299805	-206.0828094482422	4.576560974121094	-6.651306629180908	-564.0499267578125	-0.0	-0.0	-0.0	-0.0	-0.0	-0.0	199817.421875	-36962.171875	482.2759399414063
0.0075	-0.0	-0.0	-0.0	-8.216109275817871	11.478567123413086	-204.69883728027344	4.408423900604248	-6.45648193359375	-561.2645263671875	-0.0	-0.0	-0.0	-0.0	-0.0	-0.0	199684.8125	-37105.125	479.142333984375
0.008	-0.0	-0.0	-0.0	-8.250836372375488	11.917415618896484	-205.30079650878903	4.497279167175293	-6.782867908477783	-562.2402954101562	-0.0	-0.0	-0.0	-0.0	-0.0	-0.0	199783.203125	-37053.73828125	384.5005187988281
0.0085	-0.0	-0.0	-0.0	-8.313819885253906	12.576000213623049	-204.9808807373047	4.674918174743652	-6.624126434326172	-560.45849609375	-0.0	-0.0	-0.0	-0.0	-0.0	-0.0	199298.375	-36794.27734375	408.1490783691406
0.009000000000000001	-0.0	-0.0	-0.0	-8.224512100219727	12.070345878601074	-205.9717712402344	4.675063133239746	-6.615295886993408	-561.9945068359375	-0.0	-0.0	-0.0	-0.0	-0.0	-0.0	199437.53125	-36427.58203125	502.9674072265625
0.0095	-0.0	-0.0	-0.0	-8.984726905822754	11.896862983703612	-205.75289916992188	4.027221202850342	-6.624126434326172	-560.3189697265625	-0.0	-0.0	-0.0	-0.0	-0.0	-0.0	199086.859375	-36679.14453125	422.3694763183594
0.01	-0.0	-0.0	-0.0	-8.82340145111084	12.121734619140623	-208.0754852294922	4.115642547607422	-6.501011848449707	-559.82763671875	-0.0	-0.0	-0.0	-0.0	-0.0	-0.0	198894.609375	-36447.515625	324.6588134765625
0.0105	-0.0	-0.0	-0.0	-8.547428131103516	12.355594635009766	-208.2765045166016	4.1607184410095215	-6.686496734619141	-560.737548828125	-0.0	-0.0	-0.0	-0.0	-0.0	-0.0	199381.8125	-36380.953125	220.5304107666016
0.011	-0.0	-0.0	-0.0	-8.985305786132812	12.606650352478027	-206.3888092041016	3.940282106399536	-6.775031566619873	-561.1544799804688	-0.0	-0.0	-0.0	-0.0	-0.0	-0.0	199538.546875	-36363.2109375	232.63075256347656
0.0115	-0.0	-0.0	-0.0	-8.759142875671387	12.29999542236328	-208.9844512939453	3.531320571899414	-6.410269260406494	-562.0206298828125	-0.0	-0.0	-0.0	-0.0	-0.0	-0.0	199616.921875	-36274.75390625	95.59711456298828
0.012	-0.0	-0.0	-0.0	-8.831840515136719	12.348122596740724	-206.70774841308597	3.637142181396485	-6.216397285461426	-564.0137939453125	-0.0	-0.0	-0.0	-0.0	-0.0	-0.0	199871.59375	-36257.109375	89.99989318847656
0.0125	-0.0	-0.0	-0.0	-8.993990898132324	12.040732383728027	-208.31175231933597	3.299168348312378	-6.5821380615234375	-564.8941650390625	-0.0	-0.0	-0.0	-0.0	-0.0	-0.0	200084.0625	-36386.29296875	113.6897430419922
0.013000000000000001	-0.0	-0.0	-0.0	-9.002175331115723	12.267678260803224	-208.02297973632807	3.396168708801269	-6.13594388961792	-565.2764892578125	-0.0	-0.0	-0.0	-0.0	-0.0	-0.0	200748.34375	-36433.47265625	47.34663772583008
0.0135	-0.0	-0.0	-0.0	-8.523153305053711	12.454200744628906	-206.44772338867188	3.620490312576294	-6.022453784942627	-566.9566650390625	-0.0	-0.0	-0.0	-0.0	-0.0	-0.0	200852.8125	-36198.87109375	57.589134216308594
0.014	-0.0	-0.0	-0.0	-9.010261535644531	12.25059413909912	-206.0613250732422	3.661902904510498	-6.279057025909424	-566.323974609375	-0.0	-0.0	-0.0	-0.0	-0.0	-0.0	201178.0625	-36740.48828125	238.32177734375
0.0145	-0.0	-0.0	-0.0	-8.98654842376709	12.41281795501709	-207.5446319580078	3.927890300750733	-6.2545013427734375	-567.5914306640625	-0.0	-0.0	-0.0	-0.0	-0.0	-0.0	201321.859375	-36509.0703125	290.1313171386719
0.015	-0.0	-0.0	-0.0	-8.726964950561523	12.176513671875	-207.1925811767578	4.346828460693359	-6.728644847869873	-568.7359619140625	-0.0	-0.0	-0.0	-0.0	-0.0	-0.0	201732.75	-36781.8984375	457.2226257324219
0.0155	-0.0	-0.0	-0.0	-9.002490997314453	12.292231559753418	-205.4128875732422	4.548467636108398	-6.688336849212647	-568.7361450195312	-0.0	-0.0	-0.0	-0.0	-0.0	-0.0	202156.609375	-36437.63671875	400.6653442382813
0.016	-0.0	-0.0	-0.0	-8.319745063781738	12.032604217529297	-205.01409912109372	5.290549755096436	-6.752394199371338	-569.8469848632812	-0.0	-0.0	-0.0	-0.0	-0.0	-0.0	201884.828125	-36687.12109375	668.2207641601562
0.0165	-0.0	-0.0	-0.0	-8.676368713378906	12.157365798950195	-202.81613159179688	4.790382385253906	-6.824521064758301	-570.3886108398438	-0.0	-0.0	-0.0	-0.0	-0.0	-0.0	202490.0	-36767.49609375	516.598388671875
0.017	-0.0	-0.0	-0.0	-8.349786758422852	12.246833801269531	-201.4329376220703	4.967803955078125	-6.769293308258057	-571.2742309570312	-0.0	-0.0	-0.0	-0.0	-0.0	-0.0	202721.1875	-36646.26953125	546.3382568359375
0.0175	-0.0	-0.0	-0.0	-8.541586875915527	11.691150665283203	-200.40228271484372	5.032984256744385	-6.834427833557129	-571.4994506835938	-0.0	-0.0	-0.0	-0.0	-0.0	-0.0	202466.765625	-36811.90625	654.452392578125
0.018000000000000002	-0.0	-0.0	-0.0	-8.051349639892578	11.639179229736328	-201.19430541992188	5.492297649383545	-6.624126434326172	-569.937744140625	-0.0	-0.0	-0.0	-0.0	-0.0	-0.0	202893.03125	-36923.5859375	727.1533203125
0.0185	-0.0	-0.0	-0.0	-8.504854202270508	12.106908798217772	-198.2808074951172	5.284032821655273	-6.574249744415283	-572.19873046875	-0.0	-0.0	-0.0	-0.0	-0.0	-0.0	203018.28125	-36744.65625	830.0988159179688
0.019	-0.0	-0.0	-0.0	-8.296577453613281	11.683423042297363	-197.10348510742188	4.76288366317749	-6.477954864501953	-571.2722778320312	-0.0	-0.0	-0.0	-0.0	-0.0	-0.0	202854.390625	-36816.734375	656.909423828125
0.0195	-0.0	-0.0	-0.0	-8.289291381835938	11.319561004638672	-196.48341369628903	4.635731220245361	-6.646796703338623	-572.0802612304688	-0.0	-0.0	-0.0	-0.0	-0.0	-0.0	203116.96875	-36944.92578125	594.8894653320312
0.02	-0.0	-0.0	-0.0	-7.63355541229248	11.543566703796388	-196.31072998046875	5.602070331573486	-6.808278560638428	-572.0291137695312	-0.0	-0.0	-0.0	-0.0	-0.0	-0.0	203142.6875	-36765.265625	514.1094970703125
0.0205	-0.0	-0.0	-0.0	-7.768478870391846	11.208955764770508	-195.8446807861328	5.262890815734863	-7.14661979675293	-574.03466796875	-0.0	-0.0	-0.0	-0.0	-0.0	-0.0	203321.8125	-36943.4296875	629.8680419921875
